# xmcd CD database file
#
# Track frame offsets:
#	150
#	18238
#	35385
#	49137
#	66247
#	84503
#	100218
#	117557
#	133925
#	147783
#	163161
#	180400
#
# Disc length: 2611 seconds
#
# Revision: 1
# Processed by: cddbd v1.5.2PL0 Copyright (c) Steve Scherf et al.
# Submitted via: CDex 1.70beta2
#
DISCID=a40a310c
DTITLE=Darius Rucker - Learn to Live
DYEAR=2008
DGENRE=Country
TTITLE0=Forever Road
TTITLE1=All I Want
TTITLE2=Don't Think I Don't Think About It
TTITLE3=Learn To Live
TTITLE4=If I Had Wings
TTITLE5=History In The Making
TTITLE6=Alright
TTITLE7=It Won't Be Like This For Long
TTITLE8=Drinkin' And Dialin'
TTITLE9=I Hope They Get To Me In Time
TTITLE10=While I Still Got The Time
TTITLE11=Be Wary Of A Woman
EXTD=YEAR: 2008
EXTT0=
EXTT1=
EXTT2=
EXTT3=
EXTT4=
EXTT5=
EXTT6=
EXTT7=
EXTT8=
EXTT9=
EXTT10=
EXTT11=
PLAYORDER=
